<?xml version="1.0" encoding="utf-8"?>
<!-- Generator: Adobe Illustrator 16.0.0, SVG Export Plug-In . SVG Version: 6.00 Build 0)  -->
<!DOCTYPE svg PUBLIC "-//W3C//DTD SVG 1.1//EN" "http://www.w3.org/Graphics/SVG/1.1/DTD/svg11.dtd">
<svg version="1.1" id="Capa_1" xmlns="http://www.w3.org/2000/svg" xmlns:xlink="http://www.w3.org/1999/xlink" x="0px" y="0px"
	 width="500px" height="500px" viewBox="0 0 500 500" enable-background="new 0 0 500 500" xml:space="preserve">
<g id="BACKGROUND">
	<path opacity="0.2" fill="#F2C0D5" enable-background="new    " d="M437.814,238.11c-0.411-3.172-1.366-6.325-2.894-9.193
		c-1.505-2.851-3.604-5.491-6.297-7.482c-2.683-2-5.914-3.213-9.138-3.668c-3.234-0.466-6.46-0.278-9.552,0.253
		c-3.098,0.536-6.089,1.394-8.981,2.447c-5.783,2.125-11.207,4.933-16.432,8.001c-5.222,3.076-10.229,6.46-15.09,10.025
		c-10.846,7.966-21.035,16.698-30.808,25.858c-20.038,15.808-35.499,31.166-35.499,31.166s73.643-167.142,38.389-198.83
		c-26.398-23.729-75.086,50.508-97.458,109.449c-4.898-12.905-11.058-26.543-17.969-39.727c-2.161-4.94-4.441-9.831-6.864-14.653
		c-2.724-5.452-5.561-10.854-8.582-16.158c-6.054-10.597-12.69-20.896-20.272-30.552c-3.792-4.825-7.86-9.457-12.301-13.77
		c-2.222-2.154-4.552-4.215-7.027-6.127c-2.465-1.923-5.105-3.663-7.94-5.13c-2.837-1.452-5.906-2.621-9.204-3.117
		c-3.279-0.517-6.822-0.196-9.987,1.105c-3.188,1.289-5.857,3.429-8.009,5.981c-1.048,1.296-1.961,2.682-2.742,4.125
		c-0.748,1.456-1.407,2.947-1.92,4.473c-2.062,6.12-2.552,12.455-2.511,18.65c0.051,6.214,0.741,12.354,1.686,18.422
		c0.951,6.07,2.214,12.067,3.625,18.018c1.445,5.943,3.076,11.831,4.816,17.678c3.2,10.704,6.735,21.288,10.508,31.78
		c14.205,49.763,35.625,98.379,35.625,98.379S90.855,202,66.087,238.978s68.845,119.777,68.845,119.777
		c-2.99-1.843-5.852-3.388-8.59-4.689c-1.523-0.99-3.081-1.933-4.682-2.806c-1.412-0.781-2.863-1.493-4.327-2.188
		c-1.482-0.651-2.976-1.291-4.509-1.841c-3.052-1.143-6.233-1.973-9.481-2.526c-3.391-0.568-6.962-0.276-10.26,0.854
		c-6.661,2.2-11.927,7.911-13.867,14.642c-0.967,3.368-1.094,6.979-0.387,10.403l0.299,1.275l0.381,1.251
		c0.27,0.802,0.562,1.557,0.843,2.337l0.936,2.284l1.022,2.24c5.797,11.819,14.481,21.666,23.758,30.497
		c9.372,8.794,19.568,16.562,30.063,23.819c0.099,0.068,0.237,0.052,0.315-0.044c0.002-0.002,0-0.005,0.002-0.008
		c23.179,18.036,45.261,29.787,45.261,29.787h50.554h23.592h50.556c0,0,79.093-42.081,95.022-89.224
		c4.757-14.073-6.978-28.4-21.693-26.383c-7.287,0.999-16.167,3.92-26.555,10.318c0,0,10.405-9.207,23.357-22.844
		c0.043-0.041,0.086-0.08,0.129-0.121c4.355-4.123,8.635-8.33,12.828-12.626c8.341-8.633,16.351-17.619,23.701-27.169
		c7.342-9.54,14.116-19.637,19.185-30.76c2.499-5.563,4.506-11.445,5.347-17.659C438.14,244.475,438.229,241.287,437.814,238.11z
		 M95.636,394.208c-3.82-4.978-7.218-10.265-9.84-15.874l-0.947-2.115l-0.862-2.146c-0.253-0.722-0.53-1.455-0.764-2.164
		l-0.309-1.038l-0.238-1.054c-0.559-2.822-0.434-5.76,0.375-8.514c0.795-2.755,2.227-5.342,4.183-7.466
		c1.958-2.117,4.395-3.794,7.091-4.829c2.702-1.036,5.65-1.362,8.576-1.083c0.81,0.089,1.617,0.2,2.424,0.329
		c-13.229,0.186-23.062,13.479-18.641,26.562c3.936,11.646,11.73,22.982,21.231,33.454
		C103.531,403.819,99.404,399.134,95.636,394.208z M146.601,96.688c-11.128,10.003-11.404,33.505-6.572,60.984
		c-0.91-3.585-1.786-7.178-2.591-10.782c-1.324-5.898-2.497-11.826-3.356-17.783c-0.86-5.954-1.427-11.942-1.473-17.894
		c-0.024-5.932,0.505-11.904,2.366-17.332c0.461-1.355,1.044-2.646,1.688-3.894c0.673-1.229,1.444-2.384,2.311-3.451
		c1.772-2.069,3.975-3.86,6.443-4.853c2.463-1.019,5.191-1.304,7.917-0.893c2.729,0.395,5.43,1.385,8.003,2.689
		c2.576,1.312,5.033,2.931,7.394,4.705c2.364,1.771,4.625,3.712,6.797,5.76c4.354,4.091,8.363,8.586,12.198,13.23
		c3.83,4.652,7.451,9.493,10.903,14.458c2.958,4.239,5.814,8.557,8.565,12.945C185.934,103.159,162.318,82.561,146.601,96.688z
		 M433.854,247.074c-0.725,5.68-2.628,11.251-4.936,16.63c-4.714,10.771-11.285,20.761-18.287,30.354
		c-0.253,0.342-0.52,0.674-0.772,1.015c13.6-20.591,21.762-41.777,12.172-56.095c-10.429-15.569-33.152-8.004-55.972,5.973
		c1.748-1.283,3.504-2.555,5.276-3.798c4.883-3.394,9.864-6.634,14.992-9.579c5.134-2.924,10.431-5.564,15.921-7.495
		c5.45-1.912,11.233-3.219,16.663-2.426c2.694,0.398,5.229,1.379,7.35,2.971c2.129,1.579,3.836,3.75,5.143,6.172
		C434.036,235.633,434.597,241.428,433.854,247.074z"/>
</g>
<g id="OBJECTS">
	<ellipse fill="#D8E8E4" cx="250" cy="453.9" rx="184.155" ry="7.698"/>
	<g>
		<g>
			<g>
				<polygon fill="#F1C550" points="336.939,239.528 340.602,239.528 410.458,453.9 406.797,453.9 				"/>
				<g>
					<polygon fill="#F0BF41" points="333.469,272.602 333.971,273.533 335.439,276.266 351.682,276.266 349.893,272.934 
						349.711,272.602 					"/>
					<path fill="#F0D286" d="M333.469,272.602l0.502,0.933c1.745,0.305,4.174,0.493,6.857,0.493c4.207,0,7.785-0.455,9.062-1.094
						l-0.181-0.332H333.469z"/>
				</g>
				<g>
					<polygon fill="#F0BF41" points="325.855,247.146 326.342,248.079 327.77,250.811 343.544,250.811 341.807,247.479 
						341.63,247.146 					"/>
					<path fill="#F0D286" d="M325.855,247.146l0.485,0.933c1.696,0.305,4.056,0.495,6.661,0.495c4.086,0,7.562-0.457,8.803-1.094
						l-0.176-0.333L325.855,247.146L325.855,247.146z"/>
				</g>
				<g>
					<polygon fill="#F0BF41" points="342.575,299.157 343.055,300.09 344.461,302.82 360.005,302.82 358.292,299.49 
						358.119,299.157 					"/>
					<path fill="#F0D286" d="M342.575,299.157l0.479,0.933c1.672,0.305,3.995,0.494,6.563,0.494c4.026,0,7.45-0.456,8.674-1.094
						l-0.173-0.333H342.575z"/>
				</g>
				<g>
					<polygon fill="#F0BF41" points="351.193,325.714 351.67,326.646 353.066,329.378 368.499,329.378 366.799,326.047 
						366.627,325.714 					"/>
					<path fill="#F0D286" d="M351.193,325.714l0.477,0.934c1.66,0.305,3.967,0.493,6.518,0.493c3.998,0,7.397-0.456,8.611-1.094
						l-0.172-0.333H351.193z"/>
				</g>
				<g>
					<polygon fill="#F0BF41" points="359.76,352.271 360.247,353.203 361.677,355.935 377.479,355.935 375.736,352.604 
						375.561,352.271 					"/>
					<path fill="#F0D286" d="M359.76,352.271l0.487,0.933c1.698,0.305,4.062,0.495,6.672,0.495c4.093,0,7.574-0.457,8.817-1.096
						l-0.176-0.332H359.76z"/>
				</g>
				<g>
					<polygon fill="#F0BF41" points="368.562,378.827 369.059,379.76 370.516,382.491 386.607,382.491 384.836,379.16 
						384.656,378.827 					"/>
					<path fill="#F0D286" d="M368.562,378.827l0.496,0.933c1.73,0.306,4.137,0.495,6.797,0.495c4.168,0,7.713-0.457,8.979-1.095
						l-0.181-0.333H368.562z"/>
				</g>
				<g>
					<polygon fill="#F0BF41" points="377.366,405.384 377.857,406.316 379.3,409.048 395.241,409.048 393.484,405.717 
						393.309,405.384 					"/>
					<path fill="#F0D286" d="M377.366,405.384l0.491,0.934c1.715,0.305,4.098,0.495,6.731,0.495c4.129,0,7.642-0.457,8.896-1.096
						l-0.178-0.333H377.366z"/>
				</g>
				<g>
					<polygon fill="#F0BF41" points="385.456,431.94 385.948,432.873 387.395,435.604 403.378,435.604 401.617,432.273 
						401.439,431.94 					"/>
					<path fill="#F0D286" d="M385.456,431.94l0.492,0.933c1.719,0.305,4.108,0.495,6.75,0.495c4.14,0,7.661-0.457,8.919-1.095
						l-0.178-0.333H385.456z"/>
				</g>
				<polygon fill="#F1C550" points="320.462,239.528 324.123,239.528 393.98,453.9 390.32,453.9 				"/>
			</g>
			<g>
				<g>
					<polygon fill="#F1C550" points="318.661,239.528 315,239.528 315.463,453.9 319.124,453.9 					"/>
					<polygon fill="#F1C550" points="304.296,239.528 300.635,239.528 301.1,453.9 304.76,453.9 					"/>
				</g>
			</g>
			<rect x="300.635" y="239.528" fill="#F1C550" width="39.654" height="3.252"/>
		</g>
		<g>
			<g>
				<path fill="#D17A3D" d="M322.375,149.005c-18.76,0.069-30.333-17.558-31.479-25.222c-0.485,0.016-0.979-0.045-1.438-0.205
					c-1.55-0.566-2.615-2.021-4.13-2.666c-0.701-0.297-1.5-0.419-2.217-0.682s-0.721-1.293-0.024-1.601
					c1.063-0.458,2.361-0.501,3.56-0.506c-1.051-0.876-2.658-1.073-3.617-1.941c-0.441-0.392-0.291-1.136,0.275-1.292
					c0.404-0.114,0.898-0.104,1.312-0.048c1.312,0.16,2.61,0.325,3.911,0.49c-0.627-0.493-1.242-0.982-1.868-1.475
					c-0.496-0.384-1.021-1.061-0.632-1.545c0.342-0.422,1.014-0.2,1.49,0.062c1.231,0.676,2.448,1.408,3.629,2.175
					c0.207,0.143,0.418,0.277,0.664,0.333c0.486,0.1,0.987-0.19,1.332-0.548c0.349-0.367,0.611-0.802,0.975-1.152
					c0.175-0.162,0.385-0.309,0.626-0.359c0.438-0.099,0.905,0.159,1.168,0.534c0.257,0.362,0.344,0.827,0.384,1.281
					c0.109,1.264-0.139,3.015-0.706,4.638c0.599,1.457,1.245,2.823,1.944,4.096c7.322,13.317,20.033,16.892,25.484,17.83
					c0.31,0.053,0.611,0.144,0.891,0.266c1.162,0.5,2.025,1.544,2.281,2.831C326.676,146.715,324.842,148.997,322.375,149.005z"/>
				<path fill="#D97F3F" d="M323.907,141.466c-2.497,1.284-7.552,2.641-15.843-0.375c-10.979-3.989-10.777-14.938-10.532-17.721
					c7.321,13.317,20.032,16.892,25.483,17.83C323.326,141.253,323.629,141.344,323.907,141.466z"/>
			</g>
			<g>
				<path fill="#F1C550" d="M310.855,69.049l-19.233,113.539c-0.267,1.551-1.731,2.598-3.292,2.341l-32.539-5.51
					c-1.418-0.238-2.446-1.504-2.37-2.932c0.601-10.973-7.119-20.88-18.206-22.755s-21.632,4.939-24.678,15.484
					c-0.4,1.39-1.789,2.237-3.207,1.989l-32.539-5.51c-1.551-0.257-2.598-1.732-2.341-3.293l7.899-46.634l11.335-66.905
					c0.257-1.551,1.732-2.598,3.292-2.332l98.215,16.626l15.324,2.598C310.066,66.023,311.113,67.498,310.855,69.049z"/>
				<path fill="#FFD461" d="M294.173,74.37c0,35.594-28.846,64.44-64.44,64.44c-19.833,0-37.563-8.956-49.384-23.041l11.335-66.905
					c0.257-1.551,1.732-2.598,3.292-2.332l98.215,16.626C293.84,66.794,294.173,70.543,294.173,74.37z"/>
			</g>
			<g>
				<g>
					<g>
						<path fill="#DB894F" d="M341.2,129.548c2.778-5.492,1.512-12.108-3.283-15.543c-5.341-3.826-13.021-2.251-17.153,3.517
							c-4.132,5.769-4.188,13.194,1.152,17.02c1.21,0.867,2.598,1.46,4.061,1.815l-1.146,7.866l7.533,1.099l1.361-9.333
							c0.896-0.301,1.762-0.686,2.578-1.166c3.147,1.287,7.898-0.228,7.715-3.037C343.902,130.015,342.408,129.596,341.2,129.548z"
							/>
						<path fill="#D17A3D" d="M325.975,136.368c0,0,2.063,0.987,5.67,0c0,0-0.676,2.987-6.047,2.594L325.975,136.368z"/>
						<g>
							<path fill="#D17A3D" d="M342.221,130.77c-0.543-0.067-0.986,0.12-1.421,0.337c-0.44,0.217-0.852,0.476-1.229,0.765
								l-0.497-0.77c0.555-0.335,1.229-0.165,1.604,0.211c0.384,0.368,0.56,0.827,0.575,1.328c0.021,0.512-0.314,1.031-0.716,1.225
								c-0.396,0.213-0.802,0.262-1.199,0.25c0.332-0.219,0.662-0.422,0.879-0.669c0.218-0.252,0.276-0.493,0.22-0.751
								c-0.043-0.257-0.211-0.539-0.385-0.691c-0.172-0.145-0.39-0.175-0.508-0.115l-0.043,0.021c-0.225,0.115-0.5,0.025-0.614-0.2
								c-0.106-0.21-0.034-0.465,0.158-0.591c0.476-0.308,1.003-0.523,1.549-0.636C341.13,130.379,341.799,130.384,342.221,130.77z"
								/>
						</g>
					</g>
					<g>
						<path fill="#4D2000" d="M347.497,121.612v0.009c-0.058,1.076-0.466,2.113-0.942,3.093c-0.685,1.418-1.599,2.836-2.606,4.111
							c-0.314,0.399-0.647,0.79-0.98,1.161c0,0-1.321-0.438-1.751-0.438c-1.275-0.009-4.017,1.085-4.017,1.085
							c-0.875-0.076-1.294-0.933-1.456-2.122c-0.305-2.437,0.495-6.31,0.904-8.061h0.01c0.124-0.571,0.219-0.914,0.219-0.914
							c-8.24,4.283-13.562-2.465-13.562-2.465c-3.646,1.59-5.349,6.986-5.349,6.986c-0.59-0.581-1.188-1.294-1.304-2.104
							c-0.114-0.809-0.048-1.637,0.038-2.455c0.198-1.79,0.638-3.721,1.522-5.282c0.01,0,0.01-0.009,0.01-0.009
							c-0.086-0.124-0.182-0.248-0.268-0.381c-0.096-0.133-0.172-0.267-0.257-0.409c-0.343-0.533-0.647-1.076-0.81-1.666v-0.01
							c-0.076-0.295-0.114-0.59-0.114-0.895c0.01-1.646,1.371-2.979,2.884-3.673c0.096-0.038,0.2-0.086,0.295-0.124
							c2.467-0.989,5.387-0.771,7.682,0.581c0.199,0.124,0.391,0.276,0.533,0.457c-0.066-0.333-0.011-0.704,0.133-1.018
							c0.229-0.504,0.638-0.904,1.084-1.247c2.236-1.713,5.474-2.027,8.004-0.771c1.484,0.742,2.685,1.96,3.569,3.378
							c0.505,0.79,0.903,1.646,1.208,2.512c0.715,2.027,0.98,4.168,1.172,6.319c0.037,0.447,0.065,0.885,0.104,1.333
							c0.838-0.685,2.132-0.638,2.949,0.076C347.212,119.385,347.555,120.527,347.497,121.612z"/>
						<path fill="#692B00" d="M343.348,117.263c-0.086,0.067-0.189,0.133-0.285,0.19c-0.875,0.504-2.047,0.552-2.864-0.028
							c-0.523-0.381-0.913-0.99-1.541-1.104c-0.695-0.133-1.333,0.418-2.027,0.533c-0.676,0.124-1.353-0.162-1.979-0.447
							c-0.779-0.343-1.562-0.695-2.342-1.047c-0.703-0.305-1.466-0.628-2.197-0.447c-0.98,0.238-1.608,1.285-2.59,1.522
							c-0.836,0.209-1.703-0.219-2.397-0.723s-1.36-1.113-2.188-1.352c-0.181-0.047-0.371-0.076-0.552-0.038
							c-0.581,0.133-0.752,0.895-1.219,1.275c-0.409,0.333-1.019,0.314-1.494,0.086c-0.476-0.238-0.837-0.638-1.151-1.057
							c-0.104-0.133-0.199-0.267-0.295-0.409c-0.095-0.124-0.181-0.257-0.257-0.39c-0.096-0.133-0.172-0.267-0.257-0.409
							c-0.305-0.533-0.57-1.094-0.811-1.666v-0.01c-0.075-0.295-0.113-0.59-0.113-0.895c0.01-1.646,1.371-2.979,2.884-3.673
							c1.418,0.418,2.779,1.028,4.026,1.808c0.638,0.4,1.322,0.866,2.074,0.79c0.895-0.085,1.552-0.904,2.418-1.132
							c1.273-0.333,2.465,0.685,3.615,1.313c2.094,1.142,4.787,1.076,6.823-0.162c0.771-0.466,1.485-1.113,2.343-1.361
							c0.504,0.79,0.902,1.646,1.207,2.512C342.891,112.971,343.157,115.112,343.348,117.263z"/>
						<path fill="#692B00" d="M347.497,121.612v0.009c-0.058,1.076-0.466,2.113-0.942,3.093c-0.685,1.418-1.599,2.836-2.606,4.111
							c-0.162-0.143-0.333-0.267-0.543-0.333c-0.532-0.171-1.104,0.086-1.655,0.039c-1.247-0.105-2.104-1.723-3.341-1.523
							c-0.571,0.085-0.999,0.552-1.476,0.904c-0.361,0.266-0.762,0.466-1.189,0.6c-0.305-2.437,0.495-6.31,0.904-8.061h0.01
							c0.676-0.095,1.398,0.133,1.979,0.466c0.924,0.514,1.703,1.275,2.684,1.637c1.381,0.504,2.941,0.133,4.246-0.542
							C346.165,121.698,346.926,121.336,347.497,121.612z"/>
					</g>
				</g>
				<g>
					<g>
						<path fill="#B5F0FF" d="M331.169,141.662c-2.735-0.278-6.142-1.753-8.351-0.442c-4.844,2.873-7.158,3.413-7.987,7.421
							c-0.038,0.188,2.043,14.828,2.043,14.828l16.149,1.376c0,0,2.574-6.9,4.523-12.999
							C339.014,147.258,335.96,142.148,331.169,141.662z"/>
						<path fill="#96E1F5" d="M337.271,149.855c0,0-5.129,6.079-21.27,3.592c0,0,7.771,8.934,14.193,6.733
							C336.621,157.979,337.271,149.855,337.271,149.855z"/>
					</g>
					<g>
						<path fill="#DB894F" d="M335.314,151.8c-17.149,7.604-34.832-3.883-38.963-10.44c-0.438,0.209-0.914,0.352-1.398,0.39
							c-1.646,0.105-3.207-0.799-4.854-0.78c-0.763,0.01-1.543,0.219-2.304,0.267c-0.762,0.047-1.181-0.895-0.666-1.456
							c0.789-0.847,1.96-1.409,3.056-1.894c-1.313-0.381-2.865,0.085-4.094-0.324c-0.562-0.181-0.723-0.923-0.267-1.294
							c0.323-0.267,0.78-0.457,1.181-0.571c1.266-0.38,2.521-0.752,3.778-1.123c-0.771-0.2-1.532-0.399-2.304-0.6
							c-0.608-0.152-1.36-0.562-1.199-1.161c0.144-0.523,0.848-0.59,1.39-0.542c1.399,0.124,2.808,0.305,4.197,0.533
							c0.247,0.047,0.495,0.085,0.741,0.038c0.486-0.104,0.828-0.571,1-1.038c0.172-0.476,0.238-0.98,0.429-1.446
							c0.095-0.219,0.229-0.438,0.429-0.581c0.361-0.267,0.895-0.219,1.284,0.019c0.381,0.229,0.647,0.619,0.866,1.018
							c0.609,1.114,1.085,2.817,1.218,4.53c1.133,1.094,2.274,2.084,3.427,2.969c12.059,9.25,25.135,7.414,30.502,6.082
							c0.305-0.076,0.618-0.114,0.924-0.114c1.266-0.01,2.475,0.6,3.227,1.675C338.332,147.975,337.57,150.801,335.314,151.8z"/>
						<path fill="#E3945D" d="M333.688,144.282c-1.77,2.179-5.853,5.453-14.655,6.024c-11.658,0.761-15.874-9.346-16.769-11.992
							c12.057,9.25,25.135,7.414,30.502,6.082C333.068,144.32,333.383,144.282,333.688,144.282z"/>
					</g>
				</g>
				<g>
					<g>
						<path fill="#3DBCEA" d="M318.043,234.869c0,0,1.705,3.014,0.298,4.659h-11.36c0,0-1.189-1.606,4.381-4.659H318.043z"/>
						<g>
							<path fill="#133C6B" d="M314.445,167.983c0,0-10.461,25.103-5.881,46.104l2.561,20.889h7.311c0,0,0.319-36.389,7.527-54.187
								C325.963,180.789,326.239,167.063,314.445,167.983z"/>
							<g>
								<path fill="#0F2F54" d="M318.896,182.545c-0.64,2.071-1.119,4.181-1.494,6.309c-0.416,2.119-0.711,4.26-0.967,6.402
									c-0.492,4.288-0.761,8.6-0.804,12.916c-0.122,4.316,0.069,8.634,0.304,12.95c0.103,2.159,0.33,4.31,0.483,6.469l0.644,6.466
									c-0.397-2.13-0.754-4.27-1.105-6.412c-0.249-2.154-0.561-4.305-0.752-6.467c-0.188-2.164-0.364-4.33-0.416-6.502
									c-0.033-1.086-0.091-2.171-0.105-3.258v-3.261c0.121-4.345,0.379-8.694,1.03-12.997
									C316.393,190.871,317.27,186.575,318.896,182.545z"/>
							</g>
						</g>
					</g>
					<g>
						<path fill="#3DBCEA" d="M327.997,234.869c0,0,1.705,3.014,0.297,4.659h-11.36c0,0-1.189-1.606,4.381-4.659H327.997z"/>
						<g>
							<path fill="#174B87" d="M333.023,164.844l-16.149-1.376c-0.08,0.1-0.16,0.2-0.237,0.3
								c-4.931,6.251-2.639,14.843,3.496,18.482c-2.142,6.475-4.695,18.15-1.712,31.836l2.562,20.889h7.311
								c0,0,0.436-32.076,6.128-50.944c0.07-0.23,0.142-0.46,0.211-0.685c0.155-0.493,0.312-0.982,0.474-1.455
								c0.072-0.211,0.106-0.433,0.131-0.655c0.142-0.572,0.262-1.143,0.316-1.725C336.312,171.371,333.023,164.844,333.023,164.844
								z"/>
							<g>
								<path fill="#133D6E" d="M326.374,164.278c-0.054,1.241-0.069,2.459-0.013,3.662c0.07,1.2,0.214,2.389,0.563,3.494
									c0.335,1.107,0.927,2.108,1.813,2.81c0.895,0.705,2.074,1.03,3.302,1.203c-1.21,0.222-2.573,0.116-3.722-0.589
									c-1.154-0.695-1.918-1.906-2.301-3.137c-0.373-1.246-0.479-2.531-0.396-3.785
									C325.704,166.683,325.936,165.444,326.374,164.278z"/>
							</g>
							<g>
								<path fill="#133D6E" d="M330.852,165.216c1.1,2.698,1.852,5.545,2.205,8.462c0.152,1.46,0.183,2.949-0.054,4.424
									c-0.271,1.494-0.72,2.841-1.062,4.265c-1.442,5.631-2.816,11.284-3.877,16.994c-1.099,5.693-2.065,11.452-1.646,17.227
									c0.228,5.824,0.438,11.647,0.546,17.468c-0.501-5.808-0.896-11.613-1.275-17.417c-0.092-1.438-0.223-2.925-0.17-4.398
									c0.021-1.473,0.146-2.935,0.295-4.391c0.307-2.913,0.774-5.799,1.315-8.667c1.146-5.726,2.509-11.398,4.108-17.006
									C333.584,176.725,332.623,170.727,330.852,165.216z"/>
							</g>
						</g>
					</g>
				</g>
			</g>
		</g>
	</g>
	<g>
		<g>
			<path fill="#FAB66E" d="M145.668,265.273c13.471,11.662,32.72,6.131,38.29,1.318c0.34,0.312,0.732,0.573,1.163,0.742
				c1.466,0.553,3.135,0.163,4.625,0.637c0.689,0.221,1.34,0.627,2.019,0.881c0.678,0.254,1.32-0.484,1.009-1.138
				c-0.483-0.989-1.391-1.823-2.25-2.567c1.298,0.019,2.579,0.871,3.807,0.84c0.561-0.008,0.913-0.637,0.601-1.102
				c-0.22-0.332-0.582-0.632-0.914-0.846c-1.044-0.697-2.083-1.383-3.121-2.068c0.756,0.032,1.503,0.062,2.259,0.094
				c0.595,0.031,1.392-0.133,1.411-0.721c0.015-0.517-0.606-0.771-1.112-0.879c-1.305-0.275-2.635-0.502-3.96-0.68
				c-0.238-0.025-0.474-0.061-0.685-0.172c-0.412-0.229-0.594-0.748-0.62-1.219c-0.024-0.48,0.056-0.957,0.012-1.435
				c-0.025-0.226-0.086-0.461-0.228-0.646c-0.254-0.344-0.752-0.447-1.172-0.34c-0.409,0.103-0.759,0.383-1.069,0.686
				c-0.862,0.843-1.767,2.258-2.363,3.777c-1.333,0.681-2.645,1.263-3.936,1.748c-13.519,5.06-24.889-0.234-29.396-2.935
				c-0.256-0.153-0.53-0.274-0.807-0.358c-1.147-0.359-2.414-0.143-3.396,0.627C143.988,260.961,143.896,263.74,145.668,265.273z"/>
			<path fill="#FFBE78" d="M149.231,258.895c1.004,2.472,3.805,6.578,11.644,9.537c10.38,3.924,17.012-4.089,18.559-6.244
				c-13.519,5.061-24.889-0.233-29.396-2.934C149.782,259.102,149.508,258.979,149.231,258.895z"/>
		</g>
		<g>
			<path fill="#EA4C4C" d="M288.739,200.984v112.777c0,2.236-1.81,4.045-4.046,4.045h-30.769c-1.961,0-3.684,1.398-3.988,3.33
				c-1.599,10.507-10.678,18.56-21.632,18.56c-10.954,0-20.034-8.053-21.632-18.56c-0.305-1.932-2.027-3.33-3.988-3.33h-30.769
				c-2.236,0-4.045-1.809-4.045-4.045V200.984c0-2.237,1.809-4.045,4.045-4.045h30.769c1.96,0,3.683-1.399,3.988-3.331
				c1.599-10.507,10.678-18.558,21.632-18.558c10.954,0,20.033,8.051,21.632,18.558c0.304,1.932,2.027,3.331,3.988,3.331h30.769
				C286.932,196.939,288.739,198.748,288.739,200.984z"/>
			<path fill="#EA5757" d="M288.739,200.984v94c-25.61,6.871-55.19-1.553-75.356-24.002c-19.234-21.423-24.858-49.993-17.017-74.043
				h6.319c1.96,0,3.683-1.399,3.988-3.331c1.599-10.507,10.678-18.558,21.632-18.558c10.954,0,20.033,8.051,21.632,18.558
				c0.304,1.932,2.027,3.331,3.988,3.331h30.769C286.932,196.939,288.739,198.748,288.739,200.984z"/>
		</g>
		<g>
			<polygon fill="#F1C550" points="156.815,274.504 153.154,274.504 89.542,453.9 93.203,453.9 			"/>
			<g>
				<polygon fill="#F0BF41" points="160.492,299.157 160.044,300.09 158.731,302.82 144.218,302.82 145.816,299.49 145.978,299.157 
									"/>
				<path fill="#F0D286" d="M160.492,299.157l-0.447,0.933c-1.561,0.305-3.731,0.494-6.129,0.494c-3.759,0-6.957-0.456-8.099-1.094
					l0.162-0.333H160.492z"/>
			</g>
			<g>
				<polygon fill="#F0BF41" points="151.275,325.714 150.828,326.646 149.515,329.378 135.001,329.378 136.6,326.047 
					136.762,325.714 				"/>
				<path fill="#F0D286" d="M151.275,325.714l-0.447,0.934c-1.561,0.305-3.73,0.493-6.129,0.493c-3.759,0-6.957-0.456-8.099-1.094
					l0.162-0.333H151.275z"/>
			</g>
			<g>
				<polygon fill="#F0BF41" points="141.493,352.271 141.046,353.203 139.732,355.935 125.219,355.935 126.818,352.604 
					126.98,352.271 				"/>
				<path fill="#F0D286" d="M141.493,352.271l-0.447,0.933c-1.561,0.305-3.73,0.495-6.129,0.495c-3.759,0-6.957-0.457-8.099-1.096
					l0.162-0.332H141.493z"/>
			</g>
			<g>
				<polygon fill="#F0BF41" points="131.948,378.827 131.5,379.76 130.187,382.491 115.673,382.491 117.272,379.16 117.434,378.827 
									"/>
				<path fill="#F0D286" d="M131.948,378.827l-0.447,0.933c-1.561,0.306-3.731,0.495-6.129,0.495c-3.759,0-6.957-0.457-8.099-1.095
					l0.162-0.333H131.948z"/>
			</g>
			<g>
				<polygon fill="#F0BF41" points="122.979,405.384 122.531,406.316 121.218,409.048 106.704,409.048 108.303,405.717 
					108.465,405.384 				"/>
				<path fill="#F0D286" d="M122.979,405.384l-0.447,0.934c-1.561,0.305-3.731,0.495-6.129,0.495c-3.759,0-6.957-0.457-8.099-1.096
					l0.162-0.333H122.979z"/>
			</g>
			<g>
				<polygon fill="#F0BF41" points="113.392,431.94 112.944,432.873 111.631,435.604 97.118,435.604 98.716,432.273 98.878,431.94 
									"/>
				<path fill="#F0D286" d="M113.392,431.94l-0.447,0.933c-1.561,0.305-3.73,0.495-6.129,0.495c-3.759,0-6.957-0.457-8.099-1.095
					l0.162-0.333H113.392z"/>
			</g>
			<polygon fill="#F1C550" points="170.509,274.504 166.848,274.504 103.235,453.9 106.897,453.9 			"/>
		</g>
		<g>
			<g>
				<g>
					<path fill="#FFBE78" d="M149.987,290.461c0,0,4.132,17.871-5.543,37.064l-8.453,19.295l-6.219-2.402
						c0,0,9.359-30.613,6.821-49.646C136.592,294.771,138.796,286.626,149.987,290.461z"/>
					<path fill="#FFB15E" d="M141.539,321.099c-1.237,2.827-3.893,4.18-7.195,4.589c0.028-0.144,0.057-0.286,0.085-0.42
						c2.322-0.666,4.14-1.97,5.101-4.169c3.188-7.309,0.866-22.26-0.618-29.76c0.485-0.428,1.075-0.817,1.779-1.132
						C142.138,297.221,144.898,313.399,141.539,321.099z"/>
					<path fill="#05937E" d="M129.748,344.418c0,0-2.538,2.355-1.695,4.35l10.827,3.442c0,0,1.62-1.17-2.764-5.769L129.748,344.418z
						"/>
					<path fill="#FFB15E" d="M142.606,322.85c-0.43,0.308-0.568,0.705-0.637,1.103c-0.021,0.199-0.054,0.427-0.027,0.59
						c0.022,0.172,0.057,0.24,0.137,0.301c0.152,0.147,0.381,0.148,0.581-0.052c0.081-0.082,0.127-0.239,0.092-0.339
						c0.025-0.101-0.278-0.209-0.393,0.034c-0.127-0.283,0.323-0.637,0.701-0.387c0.335,0.236,0.399,0.666,0.269,1.012
						c-0.121,0.35-0.421,0.607-0.794,0.716c-0.393,0.098-0.796-0.025-1.085-0.271c-0.297-0.258-0.431-0.691-0.406-1.003
						c0.028-0.324,0.095-0.578,0.225-0.84C141.495,323.195,142.064,322.745,142.606,322.85z"/>
				</g>
				<g>
					<path fill="#FFBE78" d="M137.939,286.727c0,0,5.948,24.269,1.587,34.262c-4.361,9.993-26.459,1.548-32.358-1.785l1.531-5.51
						c0,0,17.636,0.633,21.853,2.298c0,0-11.312-16.894-4.261-29.265H137.939z"/>
					<path fill="#05937E" d="M108.825,313.845c0,0-2.417-2.312-4.343-1.479c-0.062,0.026-0.11,0.085-0.126,0.15l-2.767,10.907
						c0,0,1.523,0.528,5.853-4.121L108.825,313.845z"/>
					<path fill="#FFB15E" d="M135.924,317.772c-0.43,0.307-0.568,0.704-0.636,1.102c-0.021,0.199-0.054,0.427-0.027,0.589
						c0.021,0.172,0.057,0.24,0.137,0.301c0.152,0.148,0.381,0.148,0.58-0.052c0.081-0.081,0.127-0.239,0.093-0.339
						c0.024-0.1-0.278-0.209-0.394,0.034c-0.127-0.283,0.323-0.636,0.701-0.386c0.335,0.235,0.399,0.665,0.27,1.012
						c-0.122,0.35-0.421,0.606-0.794,0.716c-0.392,0.097-0.796-0.026-1.085-0.272c-0.297-0.258-0.431-0.69-0.405-1.003
						c0.028-0.322,0.095-0.577,0.225-0.839C134.812,318.118,135.382,317.668,135.924,317.772z"/>
				</g>
			</g>
			<g>
				<path fill="#FFBE78" d="M139.126,257.381c2.726,0.362,5.694,0.771,8.234,1.154c4.047,0.611,6.177,6.9,6.057,10.99
					c-0.005,0.191-0.017,0.377-0.034,0.557c-0.282,2.852-7.374,11.657-7.374,11.657l-14.041-2.58c0,0-0.91-7.308-1.396-13.69
					C130.208,260.666,134.352,256.747,139.126,257.381z"/>
				<path fill="#05937E" d="M146.516,281.537l-0.133,0.199c6.233,8.289,5.805,19.054,5.215,23.803
					c-0.181,1.532-0.381,2.436-0.381,2.436h-25.22c-10.393-15.074,5.32-29.188,5.32-29.188l-0.387-8.987
					c-0.005-0.12,0.143-0.176,0.226-0.088c2.836,3.006,5.396,1.005,5.396,1.005c4.044-4.234-1.894-12.553-1.894-12.553
					c1.58-1.085,2.836-0.848,2.836-0.848c3.026,3.512,8.565,7.434,8.965,6.72c0.381-0.687-1.095-5.368-1.218-5.787
					c-0.009-0.009,0-0.028,0.019-0.019l3.578,0.522c0.01,0,0.02,0.011,0.02,0.011l3.645,9.088c0.752,1.865,0.524,3.979-0.59,5.652
					L146.516,281.537z"/>
				<g>
					<path fill="#FFBE78" d="M131.894,267.457c14.183,12.279,34.449,6.455,40.313,1.391c0.358,0.327,0.771,0.604,1.224,0.78
						c1.544,0.581,3.301,0.172,4.87,0.671c0.726,0.23,1.411,0.659,2.125,0.928c0.714,0.268,1.39-0.512,1.062-1.199
						c-0.508-1.041-1.464-1.918-2.369-2.702c1.367,0.021,2.715,0.918,4.009,0.886c0.589-0.01,0.961-0.672,0.632-1.16
						c-0.231-0.35-0.613-0.665-0.962-0.892c-1.1-0.733-2.192-1.455-3.286-2.177c0.795,0.033,1.582,0.064,2.378,0.099
						c0.627,0.032,1.465-0.14,1.486-0.761c0.016-0.543-0.638-0.812-1.171-0.924c-1.374-0.291-2.774-0.528-4.169-0.717
						c-0.251-0.025-0.499-0.062-0.721-0.18c-0.434-0.242-0.625-0.788-0.653-1.284c-0.025-0.505,0.059-1.007,0.012-1.509
						c-0.027-0.236-0.09-0.484-0.24-0.68c-0.268-0.36-0.792-0.471-1.234-0.357c-0.431,0.107-0.8,0.403-1.126,0.723
						c-0.907,0.887-1.86,2.377-2.487,3.977c-1.403,0.717-2.784,1.33-4.144,1.84c-14.233,5.328-26.204-0.246-30.949-3.088
						c-0.269-0.161-0.558-0.289-0.85-0.379c-1.208-0.379-2.542-0.148-3.575,0.66C130.125,262.918,130.028,265.844,131.894,267.457z"
						/>
					<path fill="#00806C" d="M151.084,274.741l-1.37,2.036c-5.244-0.391-10.678-1.969-15.57-5.435
						c1.285,0.124,2.218-0.485,2.379-0.608C141.206,273.419,146.259,274.561,151.084,274.741z"/>
					<path fill="#FFC485" d="M135.645,260.741c1.057,2.602,4.006,6.925,12.259,10.041c10.928,4.132,17.911-4.306,19.539-6.574
						c-14.233,5.328-26.204-0.246-30.949-3.088C136.226,260.959,135.937,260.831,135.645,260.741z"/>
				</g>
				<path fill="#06AB93" d="M151.598,305.539c-0.847-0.02-1.704-0.189-2.475-0.477c-4.663-1.676-7.956-5.873-10.307-10.24
					c-0.713-1.305-1.361-2.674-1.599-4.149c-0.219-1.38-0.057-2.808,0.333-4.159c0.371-1.273,0.961-2.531,1.941-3.436
					c1.256-1.15,3.026-1.607,4.73-1.589c0.619,0,1.437,0.01,2.294,0.048l-0.133,0.199
					C152.616,290.025,152.188,300.79,151.598,305.539z"/>
			</g>
			<g>
				<path fill="#FFBE78" d="M155.561,237.147c-2.063-6.789-8.832-10.744-15.118-8.833c-4.65,1.414-7.727,5.643-8.181,10.497
					c-1.105-0.577-3.005-1.201-3.997,0.6c-1.267,2.301,1.832,5.402,5.011,5.947c1.107,2.542,3.055,4.595,5.375,5.994l-1.141,6.207
					l7.489,1.377l1.024-5.576c1.015-0.026,2.021-0.166,2.988-0.461C155.296,250.988,157.625,243.937,155.561,237.147z"/>
				<g>
					<g>
						<path fill="#FAAC5A" d="M129.52,239.749c0.49-0.266,1.128-0.144,1.627,0.069c0.505,0.22,0.975,0.533,1.375,0.922
							c0.154,0.149,0.158,0.396,0.008,0.55c-0.141,0.145-0.368,0.157-0.522,0.032l-0.025-0.02c-0.133-0.108-0.388-0.116-0.603,0.008
							c-0.217,0.13-0.439,0.387-0.532,0.65c-0.105,0.263-0.076,0.534,0.104,0.822c0.176,0.289,0.473,0.538,0.767,0.796
							c-0.383-0.083-0.762-0.22-1.101-0.498c-0.343-0.268-0.558-0.817-0.441-1.296c0.108-0.471,0.364-0.875,0.792-1.151
							c0.421-0.284,1.08-0.32,1.533,0.087l-0.539,0.562c-0.323-0.358-0.687-0.688-1.088-0.978
							C130.48,240.018,130.061,239.75,129.52,239.749z"/>
					</g>
					<path fill="#FAAC5A" d="M146.022,253.359c0,0-2.657,0.504-5.155-1.399c0,0,1.698,3.685,4.686,3.954L146.022,253.359z"/>
				</g>
				<g>
					<path fill="#F26E18" d="M163.578,264.003c-5.729-0.487-12.627-4.146-12.627-4.146c-1.618-1.01-2.027-0.924-2.027-0.924
						l-0.066-0.17l-3.721-0.554l0.885-4.854c10.592-1.074,10.269-11.249,10.269-11.249c-0.99,0.114-2.274-0.266-3.674-0.933
						c-2.389-1.113-5.129-3.064-7.347-4.787c-2.417-1.894-4.207-3.521-4.207-3.521s-0.342,2.703-2.332,5.301
						c-0.799,1.066-1.884,2.103-3.312,2.941c0,0-0.143-0.8-3.16-2.294c0,0-2.77-1.332-3.807,1.114c0,0-0.076,0.171-0.095,0.466
						c-0.095,0.942,0.267,3.141,4.92,4.958c0,0,2.56,4.178,5.377,5.996l-1.104,5.986c0,0-1.266-0.295-2.893,0.828
						c0,0-4.454,2.064-4.054,7.718l0.323,3.646l0.171,4.227c-21.29-6.453-4.939-30.169-4.939-30.169
						c-0.219-0.961-0.352-1.855-0.4-2.674c-0.333-4.873,2.084-7.29,3.712-8.356c0.799-0.514,1.408-0.714,1.408-0.714
						s8.413-11.629,22.879-1.437c0.628,0.438,1.256,0.914,1.903,1.437c0,0,1.885,1.161,3.255,3.388
						c1.352,2.199,2.199,5.435,0.229,9.612c0,0,2.379,1.751,4.321,8.565C165.407,260.229,163.578,264.003,163.578,264.003z"/>
					<path fill="#FF8433" d="M139.102,236.188c0.01,0.685-0.124,1.351-0.371,1.979c-0.799,1.066-1.884,2.103-3.312,2.941
						c0,0-0.143-0.8-3.16-2.294c0,0-2.77-1.332-3.807,1.114c0,0-0.076,0.171-0.095,0.466c-0.6,0.352-1.18,0.752-1.856,0.733
						c-0.267-0.01-0.514-0.095-0.742-0.219c-0.333-4.873,2.084-7.29,3.712-8.356c0.285,0.229,0.59,0.4,0.942,0.485
						c0.752,0.171,1.522-0.124,2.293-0.276c0.762-0.152,1.694-0.057,2.094,0.609c0.286,0.485,0.2,1.17,0.59,1.589
						c0.438,0.467,1.199,0.324,1.827,0.181c0.628-0.143,1.437-0.162,1.751,0.4C139.074,235.731,139.102,235.959,139.102,236.188z"/>
					<path fill="#FF8433" d="M158.917,235.227v0.171c-0.066,1.637-1.037,3.321-2.607,3.788c-0.657,0.2-1.371,0.181-2.018,0.41
						c-0.533,0.181-1.009,0.542-1.323,0.999c-0.133,0.181-0.238,0.39-0.353,0.581c-2.389-1.113-5.129-3.064-7.347-4.787
						c1.038-0.523,2.427-0.695,3.027-1.694c0.266-0.438,0.361-1.009,0.799-1.266c0.333-0.2,0.742-0.133,1.132-0.095
						c0.847,0.095,1.79,0.028,2.417-0.542c0.581-0.523,0.752-1.342,0.999-2.084c0.038-0.104,0.076-0.2,0.114-0.305
						c0.628,0.438,1.256,0.914,1.903,1.437C155.662,231.838,157.546,233,158.917,235.227z"/>
				</g>
			</g>
		</g>
	</g>
	<g>
		<g>
			<path fill="#2660A4" d="M287.055,335.889v115.156c0,1.58-1.285,2.855-2.854,2.855H169.043c-1.58,0-2.855-1.275-2.855-2.855
				V335.889c0-1.58,1.275-2.854,2.855-2.854h32.996c1.446,0,2.674,1.065,2.836,2.494c1.237,10.916,10.497,19.396,21.747,19.396
				c11.239,0,20.509-8.479,21.747-19.396c0.162-1.429,1.389-2.494,2.826-2.494h33.006
				C285.77,333.033,287.055,334.309,287.055,335.889z"/>
			<path fill="#2B6BB8" d="M277.318,346.71c0,34.547-28.675,62.536-64.041,62.536c-18.616,0-35.385-7.757-47.091-20.139v-53.22
				c0-1.58,1.275-2.854,2.855-2.854h32.996c1.446,0,2.674,1.065,2.836,2.494c1.237,10.916,10.497,19.396,21.747,19.396
				c11.239,0,20.509-8.479,21.747-19.396c0.162-1.429,1.389-2.494,2.827-2.494h24.582
				C276.785,337.431,277.318,342.008,277.318,346.71z"/>
		</g>
		<g>
			<g>
				<path fill="#FFBE78" d="M327.287,346.094c3.115-0.836,5.916-4.209,4.441-6.383c-1.152-1.702-2.987-0.905-4.035-0.229
					c-0.898-4.791-4.353-8.721-9.112-9.699c-6.437-1.323-12.812,3.238-14.24,10.188c-1.429,6.95,1.538,13.757,7.974,15.08
					c0.99,0.204,2.004,0.25,3.018,0.186l1.533,5.457l7.33-2.061l-1.707-6.077C324.669,350.951,326.419,348.727,327.287,346.094z"/>
				<path fill="#FAAC5A" d="M315.331,355.235c0,0,3.228-0.291,5.329-2.036c0,0-0.469,3.718-4.438,5.21L315.331,355.235z"/>
				<g>
					<path fill="#FAAC5A" d="M331.195,340.218c-0.53-0.101-0.993,0.083-1.434,0.29c-0.449,0.209-0.869,0.464-1.255,0.755
						l-0.423-0.652c0.521-0.314,1.161-0.155,1.521,0.204c0.367,0.352,0.543,0.797,0.561,1.278c0.023,0.492-0.29,0.991-0.678,1.189
						c-0.387,0.209-0.783,0.271-1.176,0.28c0.338-0.198,0.677-0.387,0.903-0.638c0.229-0.248,0.312-0.51,0.257-0.787
						c-0.041-0.274-0.211-0.569-0.399-0.737c-0.188-0.163-0.438-0.203-0.591-0.122l-0.026,0.015
						c-0.188,0.101-0.425,0.029-0.524-0.16c-0.097-0.179-0.037-0.397,0.129-0.509c0.467-0.306,0.986-0.524,1.523-0.646
						C330.115,339.863,330.766,339.864,331.195,340.218z"/>
				</g>
				<g>
					<path fill="#261000" d="M331.859,344.634c-2.178,4.73-5.928,4.283-5.928,4.283l1.352-2.827c6.757-2.815,4.33-6.527,4.33-6.527
						c-1.494-1.827-3.788-0.162-3.788-0.162c-0.229,4.282-2.741,3.293-2.741,3.293c-1.988-0.247-3.35-2.274-4.168-4.035
						c-0.646-1.408-0.952-2.646-0.952-2.646s-0.428,1.693-2.036,3.445c-1.332,1.438-3.465,2.921-6.824,3.512l0.896-1.304
						c0,0-3.197,3.444-7.994,2.436l0.353,3.18c0,0-5.871-2.95-1.693-10.002c0.828-1.391,2.047-2.95,3.777-4.673
						c0.295-0.296,0.591-0.571,0.887-0.839c8.308-7.413,15.674-2.208,15.674-2.208s2.779-0.895,5.368,0.657
						c0.219,0.133,0.438,0.285,0.655,0.456c2.455,1.942,3.77,4.854,3.959,7.899C333.117,340.618,332.736,342.73,331.859,344.634z"/>
					<path fill="#3D1900" d="M332.982,338.571c-0.284-0.229-0.562-0.523-0.846-0.752c-0.591-0.477-1.353-0.724-2.104-0.704
						c-1.275,0.038-2.39,0.817-3.464,1.483c-1.086,0.677-2.36,1.295-3.588,0.962c-0.725-0.189-1.361-0.703-2.065-0.903
						c-0.647-1.408-0.952-2.646-0.952-2.646s-0.428,1.693-2.036,3.445c-2.18,1.065-4.749,1.646-6.919,0.637
						c-1.15-0.532-2.084-1.455-3.265-1.894c-0.847-0.306-1.751-0.343-2.655-0.361c-0.638,0-1.304,0-1.902-0.248
						c-0.182-0.076-0.361-0.181-0.523-0.312c0.828-1.391,2.047-2.95,3.777-4.673c0.295-0.296,0.59-0.571,0.887-0.839
						c0.723,0.399,1.246,1.113,1.998,1.467c1.15,0.552,2.521,0.133,3.691-0.382c1.172-0.514,2.389-1.133,3.654-0.95
						c1.257,0.181,2.275,1.112,3.482,1.503c1.686,0.553,3.541-0.038,5.063-0.941c1.104-0.667,2.104-1.494,3.149-2.246
						c0.22,0.133,0.438,0.285,0.656,0.456C331.479,332.614,332.793,335.526,332.982,338.571z"/>
				</g>
			</g>
			<g>
				<g>
					<path fill="#003B31" d="M333.182,449.428c0,0,1.195,2.782,0.158,3.777c-1.038,0.995-11.582,0.891-11.863-0.118
						s5.058-3.739,5.058-3.739L333.182,449.428z"/>
					<g>
						<path fill="#006656" d="M315.277,389.899c0,0-7.111,30.633-6.318,34.043c0.785,3.38,17.574,25.414,17.574,25.414l6.646,0.07
							c0,0-6.8-22.534-11.082-27.896c0,0,8.282-15.037,5.808-25.982C325.43,384.605,315.277,389.899,315.277,389.899z"/>
						<g>
							<path fill="#005446" d="M326.718,400.144c-0.983,3.807-2.038,7.59-3.122,11.364c-1.049,3.785-2.221,7.533-3.33,11.3
								l-0.021-0.322c1.019,2.177,1.985,4.375,2.963,6.568l2.926,6.587c1.9,4.413,3.806,8.825,5.591,13.291
								c-2.181-4.287-4.24-8.628-6.306-12.967l-3.022-6.543c-1.006-2.181-2.021-4.359-2.984-6.559l-0.005-0.011
								c-0.046-0.104-0.048-0.215-0.017-0.312c1.188-3.743,2.312-7.506,3.56-11.23C324.162,407.574,325.404,403.848,326.718,400.144
								z"/>
						</g>
						<g>
							<path fill="#005446" d="M324.236,399.738c-0.961,3.925-1.998,7.827-3.063,11.723c-1.032,3.904-2.19,7.771-3.28,11.659
								l-0.022-0.319c1.006,2.149,1.95,4.326,2.92,6.492l2.885,6.509c1.878,4.359,3.757,8.718,5.521,13.13
								c-2.152-4.234-4.188-8.522-6.227-12.811l-2.986-6.462c-0.988-2.157-2.002-4.304-2.953-6.479l-0.004-0.01
								c-0.045-0.103-0.049-0.212-0.019-0.311c1.175-3.863,2.276-7.747,3.509-11.594
								C321.711,407.412,322.936,403.562,324.236,399.738z"/>
						</g>
					</g>
				</g>
				<g>
					<path fill="#003B31" d="M361.255,444.189c0,0,2.563,1.61,2.274,3.02c-0.288,1.409-9.027,7.309-9.832,6.639
						c-0.805-0.671,2.039-5.949,2.039-5.949L361.255,444.189z"/>
					<g>
						<path fill="#007866" d="M340.148,394.916c0,0-0.015-0.013-0.041-0.031c-0.567-11.024-8.407-15.253-8.407-15.253l-15.74,3.861
							c-0.044,0.12-0.088,0.241-0.13,0.359c-2.829,8.015,3.146,15.86,10.888,16.29c0.673,4.785,3.652,19.445,15.851,32.265
							l13.033,16.523l5.9-4.602C361.502,444.33,343.229,413.869,340.148,394.916z"/>
						<g>
							<path fill="#006355" d="M330.665,379.886c1.978,2.267,3.696,4.755,5.187,7.383c1.444,2.635,2.586,5.551,2.926,8.571
								c0.556,2.894,1.443,5.776,2.349,8.623c0.938,2.845,1.927,5.674,2.991,8.478c2.06,5.629,4.351,11.175,6.857,16.615
								c1.235,2.73,2.602,5.397,4.045,8.021c1.5,2.585,3.039,5.176,5.097,7.378c-4.296-4.264-7.095-9.742-9.802-15.084
								c-2.657-5.404-4.951-10.977-7.09-16.603c-1.041-2.822-2.008-5.675-2.924-8.544c-0.869-2.885-1.781-5.754-2.246-8.783
								c-0.248-2.981-1.266-5.787-2.613-8.457C334.105,384.812,332.475,382.283,330.665,379.886z"/>
						</g>
						<g>
							<path fill="#006355" d="M329.193,381.358c1.977,2.265,3.695,4.754,5.186,7.383c1.444,2.633,2.586,5.55,2.926,8.571
								c0.555,2.893,1.443,5.774,2.348,8.622c0.938,2.846,1.929,5.675,2.992,8.477c2.06,5.63,4.352,11.175,6.858,16.617
								c1.233,2.729,2.601,5.396,4.044,8.021c1.5,2.584,3.038,5.176,5.096,7.378c-4.293-4.265-7.094-9.742-9.801-15.084
								c-2.658-5.403-4.951-10.976-7.089-16.602c-1.042-2.823-2.009-5.675-2.924-8.544c-0.87-2.887-1.783-5.755-2.247-8.784
								c-0.248-2.981-1.266-5.787-2.613-8.457C332.633,386.285,331.001,383.755,329.193,381.358z"/>
						</g>
						<g>
							<path fill="#006355" d="M326.094,381.69c0.484,0.783,0.971,1.532,1.479,2.253c0.52,0.708,1.044,1.405,1.663,1.993
								c0.605,0.603,1.283,1.104,2.031,1.503c0.764,0.377,1.602,0.562,2.522,0.694c-0.878,0.264-1.871,0.29-2.798-0.006
								c-0.922-0.302-1.739-0.854-2.426-1.516c-0.678-0.673-1.213-1.458-1.629-2.289
								C326.523,383.492,326.208,382.611,326.094,381.69z"/>
						</g>
					</g>
				</g>
			</g>
			<g>
				<g>
					<path fill="#8EC424" d="M319.584,361.253c-6.232-0.822-22.893-6.704-30.814-23.464l-1.539,8.65c0,0,8.759,23.272,32.02,22.641
						c2.464-0.066,4.203-2.463,3.623-4.858l0,0C322.49,362.647,321.189,361.465,319.584,361.253z"/>
					<path fill="#FFBE78" d="M287.016,335.446c0-0.139,0.146-0.226,0.264-0.152c0.416,0.257,1.23,0.949,1.738,2.62
						c0.703,2.322-0.476,7.847-2.002,8.713V335.446z"/>
				</g>
				<path fill="#9AD12C" d="M322.57,358.604c-2.682,0.611-5.932,0.521-8.096,1.907c-7.238,4.645-2.432,8.234-1.936,12.297
					c0.023,0.19,3.42,10.686,3.42,10.686l15.74-3.861c0,0,0.131-6.052,0.156-12.454C331.881,360.933,327.266,357.533,322.57,358.604
					z"/>
				<g>
					<path fill="#8DC225" d="M328.729,365.082c-4.898,8.71-15.598,9.622-15.598,9.622s9.096,3.329,11.713,1.425
						C327.461,374.226,328.729,365.082,328.729,365.082z"/>
					<path fill="#8DC225" d="M323.033,359.702c-4.488,5.076-12.408,7.26-12.408,7.26L323.033,359.702z"/>
					<g>
						<path fill="#9AD12C" d="M323.033,359.702c-4.703,4.171-17.705,13.325-35.958,6.912l-0.023,6.193
							c0,0,26.919,10.266,41.677-7.727c1.562-1.905,0.893-4.79-1.299-5.92l0,0C325.99,358.419,324.245,358.628,323.033,359.702z"/>
						<path fill="#FFBE78" d="M287.052,361.07c0,0,1.251,0.556,1.728,2.935c0.476,2.38-0.122,8.09-1.728,8.804V361.07z"/>
					</g>
				</g>
			</g>
		</g>
	</g>
</g>
<g id="DESIGNED_BY_FREEPIK">
	<g id="XMLID_30_">
		<g id="XMLID_230_">
			<g id="XMLID_249_">
				<path id="XMLID_257_" fill="#828281" d="M257.103,486.751c-0.304,0.312-0.564,0.655-0.778,1.021l-0.326-0.17
					c-0.048-0.208-0.246-0.353-0.464-0.327c-0.232,0.027-0.398,0.238-0.372,0.471c0.027,0.233,0.238,0.399,0.472,0.372
					c0.045-0.005,0.089-0.019,0.129-0.037l0.317,0.164c-0.177,0.39-0.305,0.802-0.379,1.226l0.524,0.093
					c0.161-0.918,0.598-1.762,1.261-2.441L257.103,486.751z"/>
				<path id="XMLID_256_" fill="#828281" d="M260.961,485.133c-0.12,0-0.239,0.004-0.357,0.012l-0.052-0.44
					c0.132-0.104,0.208-0.272,0.187-0.453c-0.032-0.276-0.282-0.474-0.559-0.441c-0.277,0.032-0.475,0.282-0.441,0.56
					c0.021,0.179,0.133,0.324,0.284,0.396l0.051,0.438c-0.502,0.082-0.985,0.234-1.447,0.455l0.229,0.481
					c0.658-0.314,1.365-0.474,2.106-0.474c0.349,0,0.698,0.037,1.037,0.11l0.112-0.521
					C261.734,485.174,261.349,485.133,260.961,485.133z"/>
				<path id="XMLID_255_" fill="#828281" d="M265.603,486.924c0.233-0.028,0.397-0.24,0.369-0.473
					c-0.027-0.232-0.24-0.398-0.473-0.369c-0.218,0.026-0.376,0.214-0.372,0.428l-0.292,0.255c-0.294-0.303-0.626-0.571-0.99-0.802
					l-0.283,0.452c0.797,0.502,1.42,1.213,1.802,2.056l0.484-0.22c-0.176-0.39-0.398-0.752-0.661-1.086l0.282-0.246
					C265.512,486.927,265.557,486.93,265.603,486.924z"/>
				<path id="XMLID_254_" fill="#828281" d="M260.577,492.31c-0.271,0.016-0.546,0.024-0.813,0.024
					c-0.619,0-1.219-0.043-1.743-0.127c-0.275-0.043-0.595-0.108-0.893-0.205c0.735,1.309,2.157,2.196,3.788,2.196
					c2.007,0,3.699-1.347,4.183-3.165c-0.48,0.315-1.059,0.58-1.729,0.788C262.541,492.081,261.574,492.249,260.577,492.31z"/>
				<path id="XMLID_250_" fill="#828281" d="M260.961,486.199c-2.355,0-4.272,1.874-4.272,4.178c0,0.299,0.031,0.597,0.096,0.887
					c0.474,0.34,1.902,0.627,3.76,0.514c2.024-0.122,3.724-0.673,4.69-1.518c-0.004-0.137-0.016-0.273-0.032-0.408
					C264.935,487.77,263.111,486.199,260.961,486.199z M259.444,490.779c-0.718,0-1.302-0.584-1.302-1.302
					c0-0.717,0.584-1.301,1.302-1.301c0.717,0,1.3,0.584,1.3,1.301C260.743,490.195,260.16,490.779,259.444,490.779z
					 M262.773,490.141c-0.527,0-0.955-0.43-0.955-0.957c0-0.526,0.428-0.955,0.955-0.955s0.956,0.429,0.956,0.955
					C263.729,489.711,263.301,490.141,262.773,490.141z"/>
			</g>
			<path id="XMLID_247_" fill="#828281" d="M272.212,487.512c-0.207-0.082-0.566-0.218-0.972-0.168
				c-0.388,0.049-0.594,0.24-0.594,0.709v0.608h1.566v1.207h-1.566v3.835h-1.357v-3.835h-0.942v-1.207h0.942v-0.625
				c0-1.181,0.629-1.956,1.805-1.956c0.452,0,0.813,0.085,1.118,0.217V487.512L272.212,487.512z"/>
			<path id="XMLID_245_" fill="#828281" d="M275.518,489.854c-0.124-0.021-0.251-0.032-0.369-0.032c-0.63,0-1.061,0.385-1.061,1.134
				v2.747h-1.359v-5.042h1.316v0.552c0.317-0.474,0.801-0.687,1.421-0.687c0.291,0,0.597,0.09,0.77,0.236L275.518,489.854z"/>
			<path id="XMLID_242_" fill="#828281" d="M280.908,491.174c0,0.156-0.011,0.344-0.025,0.458h-3.575
				c0.146,0.729,0.656,1.045,1.296,1.045c0.437,0,0.91-0.177,1.274-0.483l0.796,0.874c-0.572,0.526-1.301,0.766-2.148,0.766
				c-1.546,0-2.618-1.052-2.618-2.638c0-1.588,1.04-2.67,2.55-2.67C279.908,488.525,280.902,489.603,280.908,491.174z
				 M277.312,490.706h2.233c-0.125-0.646-0.516-1.01-1.099-1.01C277.808,489.696,277.433,490.081,277.312,490.706z"/>
			<path id="XMLID_239_" fill="#828281" d="M286.288,491.174c0,0.156-0.011,0.344-0.025,0.458h-3.575
				c0.146,0.729,0.656,1.045,1.296,1.045c0.438,0,0.911-0.177,1.274-0.483l0.797,0.874c-0.572,0.526-1.301,0.766-2.149,0.766
				c-1.547,0-2.618-1.052-2.618-2.638c0-1.588,1.04-2.67,2.55-2.67C285.289,488.525,286.283,489.603,286.288,491.174z
				 M282.693,490.706h2.231c-0.125-0.646-0.515-1.01-1.098-1.01C283.188,489.696,282.812,490.081,282.693,490.706z"/>
			<path id="XMLID_236_" fill="#828281" d="M292.155,491.179c0,1.515-1.05,2.654-2.44,2.654c-0.676,0-1.155-0.266-1.482-0.655v2.606
				h-1.354v-7.124h1.328v0.557c0.328-0.411,0.811-0.691,1.503-0.691C291.105,488.525,292.155,489.665,292.155,491.179z
				 M288.164,491.179c0,0.798,0.526,1.391,1.296,1.391c0.802,0,1.301-0.619,1.301-1.391c0-0.77-0.499-1.389-1.301-1.389
				C288.69,489.79,288.164,490.384,288.164,491.179z"/>
			<path id="XMLID_233_" fill="#828281" d="M294.337,487.011c0,0.49-0.38,0.865-0.869,0.865s-0.863-0.375-0.863-0.865
				c0-0.488,0.374-0.873,0.863-0.873S294.337,486.522,294.337,487.011z M294.154,493.703h-1.357v-5.042h1.357V493.703z"/>
			<path id="XMLID_231_" fill="#828281" d="M296.421,490.456l1.899-1.796h1.664l-2.445,2.373l2.461,2.669h-1.67l-1.91-2.039v2.039
				h-1.357v-7.492h1.357L296.421,490.456L296.421,490.456z"/>
		</g>
		<g id="XMLID_202_">
			<path id="XMLID_227_" fill="#828281" d="M203.893,493.657v-0.741c-0.371,0.505-0.978,0.864-1.678,0.864
				c-1.298,0-2.214-0.988-2.214-2.605c0-1.586,0.906-2.615,2.214-2.615c0.669,0,1.276,0.329,1.678,0.875v-2.647h0.772v6.87H203.893
				L203.893,493.657z M203.893,492.309v-2.256c-0.278-0.432-0.875-0.804-1.493-0.804c-0.999,0-1.596,0.825-1.596,1.926
				c0,1.103,0.598,1.916,1.596,1.916C203.017,493.091,203.615,492.741,203.893,492.309z"/>
			<path id="XMLID_224_" fill="#828281" d="M205.663,491.165c0-1.441,1.03-2.605,2.451-2.605c1.504,0,2.389,1.175,2.389,2.668v0.195
				h-4.026c0.062,0.938,0.72,1.719,1.792,1.719c0.566,0,1.143-0.226,1.534-0.628l0.371,0.505c-0.494,0.494-1.164,0.762-1.977,0.762
				C206.724,493.781,205.663,492.721,205.663,491.165z M208.104,489.198c-1.061,0-1.586,0.896-1.627,1.657h3.265
				C209.73,490.115,209.237,489.198,208.104,489.198z"/>
			<path id="XMLID_222_" fill="#828281" d="M211.059,492.998l0.401-0.556c0.33,0.381,0.958,0.711,1.637,0.711
				c0.762,0,1.174-0.361,1.174-0.854c0-1.205-3.079-0.464-3.079-2.307c0-0.773,0.669-1.432,1.853-1.432
				c0.845,0,1.442,0.319,1.844,0.721l-0.361,0.536c-0.298-0.361-0.845-0.629-1.482-0.629c-0.68,0-1.102,0.34-1.102,0.782
				c0,1.092,3.078,0.371,3.078,2.307c0,0.834-0.669,1.504-1.957,1.504C212.254,493.781,211.563,493.534,211.059,492.998z"/>
			<path id="XMLID_219_" fill="#828281" d="M215.889,487.458c0-0.288,0.237-0.525,0.515-0.525c0.288,0,0.525,0.237,0.525,0.525
				s-0.237,0.515-0.525,0.515C216.125,487.973,215.889,487.746,215.889,487.458z M216.022,493.657v-4.974h0.772v4.974H216.022z"/>
			<path id="XMLID_216_" fill="#828281" d="M218.072,494.935l0.391-0.577c0.412,0.494,0.906,0.68,1.617,0.68
				c0.824,0,1.597-0.401,1.597-1.493v-0.71c-0.361,0.504-0.968,0.885-1.668,0.885c-1.297,0-2.213-0.968-2.213-2.574
				c0-1.596,0.906-2.585,2.213-2.585c0.669,0,1.267,0.33,1.668,0.876v-0.752h0.772v4.83c0,1.647-1.154,2.162-2.369,2.162
				C219.234,495.676,218.658,495.511,218.072,494.935z M221.675,492.226v-2.173c-0.268-0.432-0.865-0.804-1.482-0.804
				c-0.999,0-1.596,0.793-1.596,1.896c0,1.091,0.597,1.895,1.596,1.895C220.811,493.04,221.408,492.658,221.675,492.226z"/>
			<path id="XMLID_214_" fill="#828281" d="M227.092,493.657v-3.254c0-0.875-0.443-1.154-1.112-1.154
				c-0.607,0-1.185,0.371-1.472,0.773v3.635h-0.772v-4.974h0.772v0.721c0.35-0.412,1.029-0.845,1.771-0.845
				c1.04,0,1.586,0.525,1.586,1.606v3.491H227.092z"/>
			<path id="XMLID_211_" fill="#828281" d="M228.863,491.165c0-1.441,1.03-2.605,2.45-2.605c1.504,0,2.389,1.175,2.389,2.668v0.195
				h-4.026c0.062,0.938,0.721,1.719,1.792,1.719c0.566,0,1.143-0.226,1.534-0.628l0.371,0.505c-0.495,0.494-1.164,0.762-1.977,0.762
				C229.924,493.781,228.863,492.721,228.863,491.165z M231.303,489.198c-1.061,0-1.585,0.896-1.626,1.657h3.264
				C232.93,490.115,232.437,489.198,231.303,489.198z"/>
			<path id="XMLID_208_" fill="#828281" d="M238.296,493.657v-0.741c-0.37,0.505-0.979,0.864-1.679,0.864
				c-1.297,0-2.214-0.988-2.214-2.605c0-1.586,0.906-2.615,2.214-2.615c0.669,0,1.277,0.329,1.679,0.875v-2.647h0.772v6.87H238.296
				L238.296,493.657z M238.296,492.309v-2.256c-0.278-0.432-0.875-0.804-1.493-0.804c-0.999,0-1.597,0.825-1.597,1.926
				c0,1.103,0.598,1.916,1.597,1.916C237.42,493.091,238.018,492.741,238.296,492.309z"/>
			<path id="XMLID_205_" fill="#828281" d="M242.753,493.657v-6.869h0.773v2.647c0.401-0.546,0.999-0.876,1.679-0.876
				c1.297,0,2.214,1.03,2.214,2.616c0,1.616-0.917,2.605-2.214,2.605c-0.7,0-1.308-0.36-1.679-0.864v0.741L242.753,493.657
				L242.753,493.657z M245.009,493.091c1.009,0,1.606-0.813,1.606-1.916c0-1.102-0.598-1.926-1.606-1.926
				c-0.607,0-1.215,0.371-1.482,0.804v2.256C243.794,492.741,244.401,493.091,245.009,493.091z"/>
			<path id="XMLID_203_" fill="#828281" d="M248.263,494.904c0.113,0.051,0.299,0.082,0.423,0.082c0.339,0,0.566-0.113,0.742-0.525
				l0.33-0.751l-2.08-5.025h0.834l1.658,4.078l1.647-4.078h0.844l-2.491,5.982c-0.299,0.721-0.804,0.999-1.462,1.01
				c-0.165,0-0.422-0.03-0.566-0.073L248.263,494.904z"/>
		</g>
	</g>
</g>
<g id="Capa_3">
	<g>
		<polygon fill="none" stroke="#FF6B88" stroke-width="2.647" stroke-miterlimit="10" points="254.074,389.322 231.358,389.091 
			231.389,366.77 218.2,366.751 218.169,388.936 196.439,388.697 196.046,403.649 218.15,403.891 218.12,426.518 231.309,426.536 
			231.34,404.049 253.263,404.274 		"/>
	</g>
	<path fill="#FF6B88" d="M265.163,429.683l-11.921-8.344c0,0,4.324-4.905,3.977-5.487c-0.554-0.927-22.049-4.692-22.049-4.692
		l-0.332,0.725c0,0,11.383,19.081,11.974,19.048l4.181-6.021l11.12,8.462C263.305,433.363,265.323,430.874,265.163,429.683z"/>
</g>
<g id="Capa_2">
	<g>
		
			<line fill="none" stroke="#0071BC" stroke-width="3.4346" stroke-linejoin="round" stroke-miterlimit="10" x1="200.52" y1="231.092" x2="254.127" y2="231.092"/>
		
			<ellipse fill="none" stroke="#0071BC" stroke-width="1.7173" stroke-miterlimit="10" cx="204.122" cy="243.195" rx="3.112" ry="3.277"/>
		<path fill="none" stroke="#0071BC" stroke-width="1.7173" stroke-miterlimit="10" d="M204.122,253.031
			c1.718,0,3.112,1.467,3.112,3.279c0,1.807-1.394,3.278-3.112,3.278c-1.72,0-3.114-1.472-3.114-3.278
			C201.008,254.498,202.401,253.031,204.122,253.031z"/>
		<path fill="#0071BC" d="M202.936,267.333c1.719,0,3.114,1.467,3.114,3.275c0,1.814-1.395,3.282-3.114,3.282
			s-3.113-1.468-3.113-3.282C199.823,268.8,201.217,267.333,202.936,267.333z"/>
		
			<line fill="none" stroke="#0071BC" stroke-width="1.7173" stroke-miterlimit="10" x1="213.029" y1="244.008" x2="254.127" y2="244.008"/>
		
			<line fill="none" stroke="#0071BC" stroke-width="1.7173" stroke-miterlimit="10" x1="213.029" y1="256.064" x2="254.127" y2="256.064"/>
		
			<line fill="none" stroke="#0071BC" stroke-width="1.7173" stroke-miterlimit="10" x1="211.318" y1="271.563" x2="254.127" y2="271.563"/>
		<path fill="#0071BC" d="M245.359,290.374c-0.193,0-0.389-0.057-0.565-0.172l-6.364-4.245l0.449-4.41l6.202,4.362l19.666-22.839
			l5.076,3.854l-23.618,23.001C246.008,290.216,245.686,290.374,245.359,290.374z"/>
	</g>
</g>
<g>
	<g>
		<g>
			<polyline fill="none" stroke="#93278F" stroke-width="2.2775" stroke-miterlimit="10" points="274.481,119.316 274.258,121.015 
				272.57,120.788 			"/>
			
				<line fill="none" stroke="#93278F" stroke-width="2.2775" stroke-miterlimit="10" stroke-dasharray="3.5342,2.3561" x1="270.243" y1="120.474" x2="236.471" y2="115.926"/>
			<polyline fill="none" stroke="#93278F" stroke-width="2.2775" stroke-miterlimit="10" points="235.308,115.77 233.619,115.543 
				233.845,113.845 			"/>
			
				<line fill="none" stroke="#93278F" stroke-width="2.2775" stroke-miterlimit="10" stroke-dasharray="3.5342,2.3561" x1="234.158" y1="111.503" x2="238.681" y2="77.551"/>
			<polyline fill="none" stroke="#93278F" stroke-width="2.2775" stroke-miterlimit="10" points="238.837,76.38 239.063,74.683 
				240.751,74.91 			"/>
			
				<line fill="none" stroke="#93278F" stroke-width="2.2775" stroke-miterlimit="10" stroke-dasharray="3.5342,2.3561" x1="243.079" y1="75.223" x2="276.85" y2="79.771"/>
			<polyline fill="none" stroke="#93278F" stroke-width="2.2775" stroke-miterlimit="10" points="278.014,79.928 279.7,80.155 
				279.475,81.852 			"/>
			
				<line fill="none" stroke="#93278F" stroke-width="2.2775" stroke-miterlimit="10" stroke-dasharray="3.5342,2.3561" x1="279.163" y1="84.193" x2="274.639" y2="118.145"/>
		</g>
	</g>
	<polygon opacity="0.7" fill="#93278F" points="216.013,92.375 256.654,97.847 251.21,138.708 210.57,133.234 	"/>
	<path fill="#93278F" d="M264.361,147.578l-9.224-8.478c0,0,4.246-3.683,4.017-4.219c-0.368-0.855-18.288-6.531-18.288-6.531
		l-0.365,0.576c0,0,7.547,17.566,8.055,17.611l4.253-4.653l8.535,8.488C262.36,150.503,264.362,148.61,264.361,147.578z"/>
</g>
</svg>
